<?xml version="1.0" encoding="UTF-8"?>
<!-- Generated by Pixelmator Pro 4.0 -->
<svg width="456" height="456" viewBox="0 0 456 456" xmlns="http://www.w3.org/2000/svg">
    <path id="path1" fill="#ff9400" fill-rule="evenodd" stroke="none" d="M 360.483795 200.225143 C 360.483795 215.786621 348.156586 221.530411 339.955536 223.632965 C 342.107544 228.864395 343.437439 234.39711 343.898193 240.035065 C 345.48819 259.983093 336.004669 278.920319 319.363739 293.476166 C 321.778992 305.580933 325.707245 325.272644 327.551483 334.520355 C 328.180908 337.674683 326.504822 339.645996 323.462219 339.645996 L 302.996521 339.645996 C 300.562012 339.749176 298.247314 338.585815 296.877502 336.570618 C 293.636047 331.045166 287.026001 319.611877 282.673279 312.070007 C 270.724701 313.373993 258.713776 314.023193 246.69426 314.014648 C 231.462143 314.033142 216.247665 312.977386 201.164093 310.855225 C 196.853409 318.324341 189.682617 330.736603 186.259705 336.567535 C 184.889893 338.582733 182.575211 339.746094 180.140717 339.642944 L 159.675003 339.642944 C 156.632401 339.642944 154.959366 337.6716 155.585739 334.517273 L 162.020477 302.255371 C 138.895569 295.100983 120.82151 285.10495 110.378487 273.430756 C 108.830528 272.035522 109.213951 270.86792 110.371292 270.581909 C 111.211906 270.371765 114.452354 269.934021 114.452354 269.934021 C 109.233414 268.952972 96 264.331696 96 245.330887 C 96 240.232895 98.409035 240.205231 102.139526 240.205231 L 114.452354 240.205231 C 117.924568 240.31633 121.109764 238.287506 122.477089 235.093933 C 126.037392 225.050461 132.660889 216.378113 141.4133 210.300125 C 140.08783 207.122223 138.972473 202.046768 142.13089 197.14975 C 145.056625 192.609436 144.406662 189.024567 143.45842 186.923035 C 142.85463 185.585236 143.270844 184.848175 145.206284 184.848175 C 150.177155 184.848175 160.032776 189.631409 166.268661 201.411194 C 167.604034 201.303925 168.955139 201.250275 170.322006 201.250275 C 170.584427 201.250275 170.842773 201.265625 171.104172 201.269714 C 187.9758 187.001953 211.824417 177.135071 238.838654 175.00177 C 276.995087 171.988922 311.361542 185.189514 329.821075 207.057617 C 330.574188 201.167847 335.765533 196.871185 341.692291 197.232269 C 347.618988 197.593384 352.250305 202.488556 352.282776 208.426178 C 352.282776 208.557388 352.267365 208.684494 352.263275 208.814713 C 355.65274 206.652252 358.472198 203.706192 360.483795 200.225143 Z M 247.719391 182.797913 C 237.01915 182.779907 226.36496 184.199768 216.042831 187.019379 L 217.68306 193.977997 C 237.351395 188.639099 258.087402 188.639099 277.755737 193.977997 L 279.395996 187.019379 C 269.073822 184.199768 258.419617 182.779907 247.719391 182.797913 Z M 341.006348 204.325653 C 338.741638 204.325653 336.905792 206.161514 336.905792 208.426178 C 336.905792 210.690842 338.741638 212.526703 341.006348 212.526703 C 343.270996 212.526703 345.106842 210.690842 345.106842 208.426178 C 345.106842 206.161514 343.270996 204.325653 341.006348 204.325653 Z"/>
    <path id="path2" fill="#ff9400" fill-rule="evenodd" stroke="none" d="M 272.392456 140.961182 C 272.392456 127.175507 261.21698 116 247.431274 116 C 233.645584 116 222.470062 127.175507 222.470062 140.961182 C 222.470062 154.746887 233.645584 165.922394 247.431274 165.922394 C 261.21698 165.922394 272.392456 154.746887 272.392456 140.961182 Z"/>
</svg>
